<svg xmlns="http://www.w3.org/2000/svg" width="160" height="160" viewBox="0 0 160 160">
  <g fill="none" stroke="#6edde5" stroke-width="2" opacity=".22">
    <path d="M0 40 40 0l40 40-40 40z"/>
    <path d="m80 40 40-40 40 40-40 40z"/>
    <path d="m0 120 40-40 40 40-40 40z"/>
    <path d="m80 120 40-40 40 40-40 40z"/>
    <path d="M20 40 40 20l20 20-20 20z"/>
    <path d="m100 40 20-20 20 20-20 20z"/>
    <path d="m20 120 20-20 20 20-20 20z"/>
    <path d="m100 120 20-20 20 20-20 20z"/>
  </g>
  <g fill="#feb54b" opacity=".18">
    <path d="m40 31 9 9-9 9-9-9z"/>
    <path d="m120 31 9 9-9 9-9-9z"/>
    <path d="m40 111 9 9-9 9-9-9z"/>
    <path d="m120 111 9 9-9 9-9-9z"/>
  </g>
</svg>
